<svg xmlns="http://www.w3.org/2000/svg" xmlns:xlink="http://www.w3.org/1999/xlink" width="500" zoomAndPan="magnify" viewBox="0 0 375 187.499995" height="250" preserveAspectRatio="xMidYMid meet" version="1.0"><defs><g/><clipPath id="184fc0c63a"><path d="M 0.5 0 L 374.5 0 L 374.5 187 L 0.5 187 Z M 0.5 0 " clip-rule="nonzero"/></clipPath><clipPath id="d671eb9c78"><path d="M 0.5625 0 L 123 0 L 123 98 L 0.5625 98 Z M 0.5625 0 " clip-rule="nonzero"/></clipPath><clipPath id="1044b6b358"><rect x="0" width="123" y="0" height="98"/></clipPath><clipPath id="c949501fa5"><path d="M 23 65 L 227.476562 65 L 227.476562 165.160156 L 23 165.160156 Z M 23 65 " clip-rule="nonzero"/></clipPath><clipPath id="8dfb694894"><rect x="0" width="205" y="0" height="101"/></clipPath><clipPath id="6173fbf069"><rect x="0" width="228" y="0" height="166"/></clipPath></defs><g clip-path="url(#184fc0c63a)"><path fill="#ffffff" d="M 0.5 0 L 374.5 0 L 374.5 187 L 0.5 187 Z M 0.5 0 " fill-opacity="1" fill-rule="nonzero"/><path fill="#ffffff" d="M 0.5 0 L 374.5 0 L 374.5 187 L 0.5 187 Z M 0.5 0 " fill-opacity="1" fill-rule="nonzero"/></g><g transform="matrix(1, 0, 0, 1, 66, 0)"><g clip-path="url(#6173fbf069)"><g clip-path="url(#d671eb9c78)"><g transform="matrix(1, 0, 0, 1, -0.000000000000014211, 0)"><g clip-path="url(#1044b6b358)"><g fill="#000000" fill-opacity="1"><g transform="translate(0.704877, 69.229492)"><g><path d="M 47.1875 -36.03125 C 51.039062 -31.8125 52.96875 -26.648438 52.96875 -20.546875 C 52.96875 -14.441406 51.039062 -9.289062 47.1875 -5.09375 C 43.34375 -0.894531 38.445312 1.203125 32.5 1.203125 C 27.050781 1.203125 22.554688 -0.75 19.015625 -4.65625 L 18.859375 -4.65625 L 18.859375 0 L 4.8125 0 L 4.8125 -69.03125 L 19.015625 -69.03125 L 19.015625 -37.25 C 22.554688 -40.664062 27.050781 -42.375 32.5 -42.375 C 38.445312 -42.375 43.34375 -40.257812 47.1875 -36.03125 Z M 35.234375 -13.609375 C 37.003906 -15.398438 37.890625 -17.710938 37.890625 -20.546875 C 37.890625 -23.378906 36.960938 -25.707031 35.109375 -27.53125 C 33.265625 -29.351562 30.976562 -30.265625 28.25 -30.265625 C 25.570312 -30.265625 23.3125 -29.351562 21.46875 -27.53125 C 19.625 -25.707031 18.703125 -23.378906 18.703125 -20.546875 C 18.703125 -17.765625 19.597656 -15.460938 21.390625 -13.640625 C 23.179688 -11.828125 25.46875 -10.921875 28.25 -10.921875 C 31.144531 -10.921875 33.472656 -11.816406 35.234375 -13.609375 Z M 35.234375 -13.609375 "/></g></g></g><g fill="#000000" fill-opacity="1"><g transform="translate(51.585513, 69.229492)"><g><path d="M 6.171875 -64.125 C 7.835938 -65.789062 9.820312 -66.625 12.125 -66.625 C 14.425781 -66.625 16.40625 -65.789062 18.0625 -64.125 C 19.71875 -62.46875 20.546875 -60.488281 20.546875 -58.1875 C 20.546875 -55.882812 19.71875 -53.90625 18.0625 -52.25 C 16.40625 -50.59375 14.425781 -49.765625 12.125 -49.765625 C 9.820312 -49.765625 7.835938 -50.59375 6.171875 -52.25 C 4.515625 -53.90625 3.6875 -55.882812 3.6875 -58.1875 C 3.6875 -60.488281 4.515625 -62.46875 6.171875 -64.125 Z M 4.8125 -41.171875 L 4.8125 0 L 19.015625 0 L 19.015625 -41.171875 Z M 4.8125 -41.171875 "/></g></g></g><g fill="#000000" fill-opacity="1"><g transform="translate(71.889449, 69.229492)"><g><path d="M 4.8125 0 L 4.8125 -41.171875 L 19.015625 -41.171875 L 19.015625 -36.84375 L 19.1875 -36.84375 C 22.875 -40.53125 26.804688 -42.375 30.984375 -42.375 C 33.015625 -42.375 35.03125 -42.109375 37.03125 -41.578125 C 39.039062 -41.046875 40.96875 -40.21875 42.8125 -39.09375 C 44.664062 -37.96875 46.164062 -36.375 47.3125 -34.3125 C 48.46875 -32.25 49.046875 -29.851562 49.046875 -27.125 L 49.046875 0 L 34.828125 0 L 34.828125 -23.28125 C 34.828125 -25.414062 34.144531 -27.285156 32.78125 -28.890625 C 31.414062 -30.492188 29.640625 -31.296875 27.453125 -31.296875 C 25.304688 -31.296875 23.363281 -30.46875 21.625 -28.8125 C 19.882812 -27.15625 19.015625 -25.3125 19.015625 -23.28125 L 19.015625 0 Z M 4.8125 0 "/></g></g></g></g></g></g><g clip-path="url(#c949501fa5)"><g transform="matrix(1, 0, 0, 1, 23, 65)"><g clip-path="url(#8dfb694894)"><g fill="#000000" fill-opacity="1"><g transform="translate(1.111872, 71.604567)"><g><path d="M 7.171875 -40.84375 L 7.171875 -56.0625 L 21.265625 -56.0625 L 21.265625 -40.84375 L 29.859375 -40.84375 L 29.859375 -30.09375 L 21.265625 -30.09375 L 21.265625 -17.125 C 21.265625 -13.351562 22.320312 -11.46875 24.4375 -11.46875 C 24.96875 -11.46875 25.523438 -11.570312 26.109375 -11.78125 C 26.703125 -12 27.15625 -12.210938 27.46875 -12.421875 L 27.953125 -12.734375 L 31.453125 -1.359375 C 28.421875 0.335938 24.96875 1.1875 21.09375 1.1875 C 18.445312 1.1875 16.164062 0.722656 14.25 -0.203125 C 12.34375 -1.128906 10.894531 -2.375 9.90625 -3.9375 C 8.925781 -5.507812 8.222656 -7.15625 7.796875 -8.875 C 7.378906 -10.601562 7.171875 -12.445312 7.171875 -14.40625 L 7.171875 -30.09375 L 1.28125 -30.09375 L 1.28125 -40.84375 Z M 7.171875 -40.84375 "/></g></g></g><g fill="#000000" fill-opacity="1"><g transform="translate(28.659102, 71.604567)"><g><path d="M 4.78125 0 L 4.78125 -68.484375 L 18.875 -68.484375 L 18.875 -36.546875 L 19.03125 -36.546875 C 22.695312 -40.210938 26.597656 -42.046875 30.734375 -42.046875 C 32.753906 -42.046875 34.757812 -41.78125 36.75 -41.25 C 38.738281 -40.71875 40.648438 -39.894531 42.484375 -38.78125 C 44.316406 -37.664062 45.800781 -36.082031 46.9375 -34.03125 C 48.082031 -31.988281 48.65625 -29.613281 48.65625 -26.90625 L 48.65625 0 L 34.5625 0 L 34.5625 -23.09375 C 34.5625 -25.21875 33.882812 -27.070312 32.53125 -28.65625 C 31.175781 -30.25 29.410156 -31.046875 27.234375 -31.046875 C 25.109375 -31.046875 23.179688 -30.222656 21.453125 -28.578125 C 19.734375 -26.929688 18.875 -25.101562 18.875 -23.09375 L 18.875 0 Z M 4.78125 0 "/></g></g></g><g fill="#000000" fill-opacity="1"><g transform="translate(77.384484, 71.604567)"><g><path d="M 46.109375 -18.46875 L 16.484375 -18.46875 C 16.484375 -15.601562 17.410156 -13.476562 19.265625 -12.09375 C 21.128906 -10.71875 23.148438 -10.03125 25.328125 -10.03125 C 27.609375 -10.03125 29.410156 -10.332031 30.734375 -10.9375 C 32.054688 -11.550781 33.570312 -12.765625 35.28125 -14.578125 L 45.46875 -9.46875 C 41.21875 -2.363281 34.15625 1.1875 24.28125 1.1875 C 18.125 1.1875 12.84375 -0.921875 8.4375 -5.140625 C 4.03125 -9.359375 1.828125 -14.4375 1.828125 -20.375 C 1.828125 -26.320312 4.03125 -31.421875 8.4375 -35.671875 C 12.84375 -39.921875 18.125 -42.046875 24.28125 -42.046875 C 30.757812 -42.046875 36.03125 -40.171875 40.09375 -36.421875 C 44.15625 -32.679688 46.1875 -27.335938 46.1875 -20.390625 C 46.1875 -19.429688 46.160156 -18.789062 46.109375 -18.46875 Z M 16.875 -26.28125 L 32.40625 -26.28125 C 32.082031 -28.40625 31.242188 -30.035156 29.890625 -31.171875 C 28.546875 -32.316406 26.8125 -32.890625 24.6875 -32.890625 C 22.351562 -32.890625 20.492188 -32.273438 19.109375 -31.046875 C 17.734375 -29.828125 16.988281 -28.238281 16.875 -26.28125 Z M 16.875 -26.28125 "/></g></g></g><g fill="#000000" fill-opacity="1"><g transform="translate(121.492072, 71.604567)"><g><path d="M 4.78125 0 L 4.78125 -40.84375 L 18.875 -40.84375 L 18.875 -34.953125 L 19.03125 -34.953125 C 19.132812 -35.171875 19.304688 -35.4375 19.546875 -35.75 C 19.785156 -36.070312 20.300781 -36.628906 21.09375 -37.421875 C 21.894531 -38.222656 22.742188 -38.941406 23.640625 -39.578125 C 24.546875 -40.210938 25.710938 -40.78125 27.140625 -41.28125 C 28.578125 -41.789062 30.039062 -42.046875 31.53125 -42.046875 C 33.070312 -42.046875 34.582031 -41.832031 36.0625 -41.40625 C 37.550781 -40.976562 38.640625 -40.550781 39.328125 -40.125 L 40.453125 -39.5 L 34.5625 -27.546875 C 32.800781 -29.035156 30.359375 -29.78125 27.234375 -29.78125 C 25.535156 -29.78125 24.070312 -29.40625 22.84375 -28.65625 C 21.625 -27.914062 20.765625 -27.015625 20.265625 -25.953125 C 19.765625 -24.890625 19.40625 -23.988281 19.1875 -23.25 C 18.976562 -22.507812 18.875 -21.925781 18.875 -21.5 L 18.875 0 Z M 4.78125 0 "/></g></g></g><g fill="#000000" fill-opacity="1"><g transform="translate(157.239867, 71.604567)"><g><path d="M 46.109375 -18.46875 L 16.484375 -18.46875 C 16.484375 -15.601562 17.410156 -13.476562 19.265625 -12.09375 C 21.128906 -10.71875 23.148438 -10.03125 25.328125 -10.03125 C 27.609375 -10.03125 29.410156 -10.332031 30.734375 -10.9375 C 32.054688 -11.550781 33.570312 -12.765625 35.28125 -14.578125 L 45.46875 -9.46875 C 41.21875 -2.363281 34.15625 1.1875 24.28125 1.1875 C 18.125 1.1875 12.84375 -0.921875 8.4375 -5.140625 C 4.03125 -9.359375 1.828125 -14.4375 1.828125 -20.375 C 1.828125 -26.320312 4.03125 -31.421875 8.4375 -35.671875 C 12.84375 -39.921875 18.125 -42.046875 24.28125 -42.046875 C 30.757812 -42.046875 36.03125 -40.171875 40.09375 -36.421875 C 44.15625 -32.679688 46.1875 -27.335938 46.1875 -20.390625 C 46.1875 -19.429688 46.160156 -18.789062 46.109375 -18.46875 Z M 16.875 -26.28125 L 32.40625 -26.28125 C 32.082031 -28.40625 31.242188 -30.035156 29.890625 -31.171875 C 28.546875 -32.316406 26.8125 -32.890625 24.6875 -32.890625 C 22.351562 -32.890625 20.492188 -32.273438 19.109375 -31.046875 C 17.734375 -29.828125 16.988281 -28.238281 16.875 -26.28125 Z M 16.875 -26.28125 "/></g></g></g></g></g></g></g></g></svg>